<svg xmlns="http://www.w3.org/2000/svg" viewBox="0 0 100 100">
  <!-- Balón base blanco -->
  <circle cx="50" cy="50" r="48" fill="white" stroke="#222" stroke-width="3"/>

  <!-- Pentágono central negro -->
  <polygon points="50,22 64,32 59,48 41,48 36,32" fill="#111"/>

  <!-- Pentágonos negros alrededor -->
  <polygon points="50,22 36,32 26,20 30,6 46,6" fill="#111"/>
  <polygon points="50,22 64,32 74,20 70,6 54,6" fill="#111"/>
  <polygon points="64,32 74,20 88,28 86,44 70,48" fill="#111"/>
  <polygon points="59,48 70,48 76,62 64,72 50,66" fill="#111"/>
  <polygon points="41,48 50,66 36,72 24,62 30,48" fill="#111"/>
  <polygon points="36,32 30,48 14,44 12,28 26,20" fill="#111"/>

  <!-- Borde exterior del balón -->
  <circle cx="50" cy="50" r="48" fill="none" stroke="#222" stroke-width="3"/>
</svg>
